<?xml version="1.0" encoding="utf-8"?>
<!-- Generator: Adobe Illustrator 19.0.0, SVG Export Plug-In . SVG Version: 6.00 Build 0)  -->
<svg version="1.1" id="Layer_1" xmlns="http://www.w3.org/2000/svg" xmlns:xlink="http://www.w3.org/1999/xlink" x="0px" y="0px"
	 viewBox="0 0 96 96" style="enable-background:new 0 0 96 96;" xml:space="preserve">
<style type="text/css">
	.st0{fill:#333333;}
</style>
<g id="XMLID_2_">
	<path id="XMLID_7_" class="st0" d="M39.4,48c-2.8,0-5.3-1-7.3-3s-3-4.4-3-7.3s1-5.3,3-7.3s4.4-3,7.3-3s5.3,1,7.3,3s3,4.4,3,7.3
		s-1,5.3-3,7.3S42.3,48,39.4,48z M65.2,51.4h9.5c0.2,0,0.4,0.1,0.6,0.3s0.3,0.4,0.3,0.6v5.2c0,0.2-0.1,0.4-0.3,0.6s-0.4,0.3-0.6,0.3
		h-9.5v9.5c0,0.2-0.1,0.4-0.3,0.6s-0.4,0.3-0.6,0.3h-5.2c-0.2,0-0.4-0.1-0.6-0.3s-0.3-0.4-0.3-0.6v-9.5h-9.5c-0.2,0-0.4-0.1-0.6-0.3
		S48,57.7,48,57.5v-5.2c0-0.2,0.1-0.4,0.3-0.6s0.4-0.3,0.6-0.3h9.5V42c0-0.2,0.1-0.4,0.3-0.6s0.4-0.3,0.6-0.3h5.2
		c0.2,0,0.4,0.1,0.6,0.3s0.3,0.4,0.3,0.6V51.4z M45.4,57.5c0,0.9,0.3,1.7,1,2.4c0.7,0.7,1.5,1,2.4,1h6.9v6.4
		c-1.2,0.9-2.7,1.3-4.6,1.3H27.7c-2.2,0-3.9-0.6-5.2-1.9s-2-2.9-2-5.1c0-0.9,0-1.9,0.1-2.8S20.8,57,21,56s0.4-2,0.7-2.9
		s0.7-1.8,1.2-2.6s1-1.6,1.7-2.2s1.4-1.1,2.3-1.4s1.9-0.5,3-0.5c0.3,0,0.7,0.2,1,0.5c1.4,1.1,2.8,1.9,4.1,2.5s2.8,0.8,4.4,0.8
		s3.1-0.3,4.4-0.8s2.7-1.4,4.1-2.5c0.4-0.3,0.7-0.5,1-0.5c2.4,0,4.3,0.9,5.8,2.6h-6c-0.9,0-1.7,0.3-2.4,1c-0.7,0.7-1,1.5-1,2.4V57.5
		z"/>
</g>
</svg>
